<?xml version="1.0" encoding="UTF-8"?>
<svg version="1.1" xmlns="http://www.w3.org/2000/svg" width="32" height="32">
<path d="M0 0 C4.8846525 2.26787438 7.73212562 5.1153475 10 10 C10.75381535 15.5997712 10.77303575 20.33499991 8.375 25.5 C3.80134327 30.3143755 0.6912538 32.25156236 -6 32.5 C-12.6912538 32.25156236 -15.80134327 30.3143755 -20.375 25.5 C-22.77303575 20.33499991 -22.75381535 15.5997712 -22 10 C-17.52212837 0.3553534 -9.85292056 -1.32635469 0 0 Z M-16.3125 6.75 C-18.59732357 9.79643142 -19.36363083 12.24542189 -20 16 C-19.58965547 18.51091771 -18.88416271 20.59311262 -18 23 C-14.535 20.525 -14.535 20.525 -11 18 C-11.20625 16.741875 -11.4125 15.48375 -11.625 14.1875 C-12.21335669 10.5985242 -12.16617415 10.24926122 -10 7 C-7.28275664 6.07041674 -5.55624887 5.87638914 -2.75 6.5 C-1 8 -1 8 -0.1875 11.4375 C0 15 0 15 -1 18 C1.31 19.65 3.62 21.3 6 23 C7.9473688 17.18283723 7.9473688 17.18283723 6.875 11.25 C4.24481729 6.69101663 2.23775874 4.18092269 -2.8125 2.5625 C-8.24582079 1.41917551 -11.99775658 3.48478876 -16.3125 6.75 Z M-8.8125 9.125 C-10.28399746 11.01353208 -10.28399746 11.01353208 -9.6875 13.6875 C-9.460625 14.450625 -9.23375 15.21375 -9 16 C-7.16299211 16.77242269 -7.16299211 16.77242269 -5 17 C-3.06345052 15.98029682 -3.06345052 15.98029682 -2 14 C-2.23043864 11.34533951 -2.23043864 11.34533951 -3 9 C-5.99014998 7.85732642 -5.99014998 7.85732642 -8.8125 9.125 Z M-15 25 C-12.85379773 27.55893347 -11.38501956 28.87166015 -8.1875 29.9375 C-3.9620723 30.02035152 -1.72780948 28.9735462 2 27 C2.33 26.34 2.66 25.68 3 25 C0.1358186 21.40165512 0.1358186 21.40165512 -3.9375 19.4921875 C-9.2890196 19.18812389 -11.58915962 20.73644952 -15 25 Z " fill="#000000" transform="translate(22,0)"/>
</svg>
